# xmcd
#
# Track frame offsets:
#	150
#	42403
#	76759
#	97295
#	105433
#	113743
#	140448
#
# Disc length: 2713 seconds
#
# Revision: 1
# Processed by: cddbd v1.5.1PL0 Copyright (c) Steve Scherf et al.
# Submitted via: audiograbber 1.82.01
#
DISCID=540a9707
DTITLE=Johnny Winter  - 1980-07-27 - Central Park,Ny - Disc 1
DYEAR=1900
DGENRE=
TTITLE0=Johnny Winter - Hideaway
TTITLE1=Johnny Winter - Messin' With The Kid
TTITLE2=Johnny Winter - Boney Moronie
TTITLE3=Johnny Winter - Drum Solo (Extra cut on this live performance)
TTITLE4=Johnny Winter - Boney Moronie,  (Reprise, extra cut on this live perfor
TTITLE4=mance)
TTITLE5=Johnny Winter - Mother In-Law Blues
TTITLE6=Johnny Winter - Sweet Papa John
EXTD=
EXTT0=
EXTT1=
EXTT2=
EXTT3=
EXTT4=
EXTT5=
EXTT6=
PLAYORDER=
